<svg width="24" height="24" viewBox="0 0 24 24" xmlns="http://www.w3.org/2000/svg" fill="currentColor">
  <path fill-rule="evenodd" clip-rule="evenodd" d="M11.7 2.805a.75.75 0 01.6 0A60.65 60.65 0 0122.83 8.72a.75.75 0 01-.231 1.337c-.685.189-1.364.392-2.037.609.23 1.91.371 3.849.42 5.81a.75.75 0 01-.462.71 47.87 47.87 0 00-8.104 4.342.75.75 0 01-.832 0 47.954 47.954 0 00-4.775-2.8 6.741 6.741 0 01-1.286 1.795.75.75 0 11-1.06-1.06c.418-.42.752-.892 1-1.396a47.615 47.615 0 00-1.983-.88.75.75 0 01-.461-.712c.048-1.96.19-3.898.42-5.81a49.75 49.75 0 00-2.037-.608.75.75 0 01-.231-1.337A60.653 60.653 0 0111.7 2.805zM4.89 11.16a59.723 59.723 0 00-.357 4.844c.468.202.933.41 1.394.625.049-.29.073-.584.073-.878v-.2a1.5 1.5 0 010-2.6v-1.38a50.14 50.14 0 00-1.11-.411zm3.785-.114a54.614 54.614 0 013.65-1.926.75.75 0 00-.65-1.352 56.124 56.124 0 00-4.732 2.56A51.4 51.4 0 003.335 9.06 59.126 59.126 0 0112 4.312a59.129 59.129 0 018.665 4.748A51.398 51.398 0 0012 12.64a51.573 51.573 0 00-3.325-1.595zM7.5 12.174v.777a1.5 1.5 0 010 2.598v.201c0 .522-.06 1.044-.18 1.556a49.436 49.436 0 014.68 2.7 49.39 49.39 0 017.467-4.003 59.69 59.69 0 00-.358-4.844 49.975 49.975 0 00-6.756 2.991.75.75 0 01-.706 0A50.04 50.04 0 007.5 12.174z"/>
</svg>
