<svg width="24" height="24" viewBox="0 0 24 24" xmlns="http://www.w3.org/2000/svg" fill="currentColor">
  <path d="M6.25 13.5a.75.75 0 01.75-.75h10.25a.75.75 0 010 1.5H7a.75.75 0 01-.75-.75zM18 6a1 1 0 100 2 1 1 0 000-2zM15 10a1 1 0 112 0 1 1 0 01-2 0zM14 6a1 1 0 100 2 1 1 0 000-2zM9 7a1 1 0 112 0 1 1 0 01-2 0zM12 9a1 1 0 100 2 1 1 0 000-2zM5 7a1 1 0 112 0 1 1 0 01-2 0zM8 9a1 1 0 100 2 1 1 0 000-2z"/>
  <path fill-rule="evenodd" clip-rule="evenodd" d="M4.5 2.75a3 3 0 00-3 3v8.5a3 3 0 003 3h6.75v2.94l-1.22-1.22a.75.75 0 10-1.06 1.06l2.5 2.5a.75.75 0 001.06 0l2.5-2.5a.75.75 0 10-1.06-1.06l-1.22 1.22v-2.94h6.75a3 3 0 003-3v-8.5a3 3 0 00-3-3h-15zm-1.5 3a1.5 1.5 0 011.5-1.5h15a1.5 1.5 0 011.5 1.5v8.5a1.5 1.5 0 01-1.5 1.5h-15a1.5 1.5 0 01-1.5-1.5v-8.5z"/>
</svg>
