<svg width="24" height="24" viewBox="0 0 24 24" xmlns="http://www.w3.org/2000/svg" fill="currentColor">
  <path fill-rule="evenodd" clip-rule="evenodd" d="M12 3c-1.863 0-3.7.108-5.507.317-.704.082-1.243.694-1.243 1.44v15.885l2.721-1.088a.75.75 0 01.558 0L12 20.942l3.472-1.388a.75.75 0 01.557 0l2.721 1.088V4.757c0-.746-.54-1.358-1.243-1.44A47.757 47.757 0 0012 3zM6.32 1.827a49.255 49.255 0 0111.36 0c1.497.174 2.57 1.46 2.57 2.93V21.75a.75.75 0 01-1.029.696l-3.471-1.388-3.472 1.388a.75.75 0 01-.556 0L8.25 21.058l-3.471 1.388a.75.75 0 01-1.029-.696V4.757c0-1.47 1.073-2.756 2.57-2.93z"/>
  <path fill-rule="evenodd" clip-rule="evenodd" d="M7.5 12.25a.75.75 0 01.75-.75h7.5a.75.75 0 010 1.5h-7.5a.75.75 0 01-.75-.75zm0 3a.75.75 0 01.75-.75H12a.75.75 0 010 1.5H8.25a.75.75 0 01-.75-.75z"/>
  <path d="M7.5 9.25a.75.75 0 01.75-.75h7.5a.75.75 0 010 1.5h-7.5a.75.75 0 01-.75-.75z"/>
</svg>
