<svg width="24" height="24" viewBox="0 0 24 24" xmlns="http://www.w3.org/2000/svg" fill="currentColor">
  <path fill-rule="evenodd" clip-rule="evenodd" d="M12 2.25a.75.75 0 01.75.75v.756a49.106 49.106 0 019.152 1 .75.75 0 11-.303 1.47 47.071 47.071 0 00-1.854-.345l2.354 9.637c.196.802-.156 1.759-1.064 2.085A6.738 6.738 0 0118.75 18c-.8 0-1.57-.14-2.285-.397-.907-.326-1.26-1.283-1.064-2.085l2.422-9.913a47.665 47.665 0 00-5.073-.35v14.267c1.293.075 2.535.343 3.697.775a.75.75 0 11-.523 1.406A11.224 11.224 0 0012 21c-1.381 0-2.703.249-3.923.703a.75.75 0 11-.524-1.406c1.163-.433 2.405-.7 3.697-.775V5.256a47.666 47.666 0 00-5.073.35L8.6 15.517c.196.802-.156 1.759-1.064 2.085A6.738 6.738 0 015.25 18c-.8 0-1.57-.14-2.285-.397-.907-.326-1.26-1.283-1.064-2.085l2.355-9.637c-.623.103-1.24.218-1.854.344a.75.75 0 01-.303-1.469 49.106 49.106 0 019.152-1V3a.75.75 0 01.75-.75zM5.25 8.131l-1.892 7.743a.343.343 0 00.018.224c.024.052.057.08.097.094a5.24 5.24 0 001.777.308 5.24 5.24 0 001.777-.308.168.168 0 00.098-.094.343.343 0 00.017-.224L5.25 8.131zm13.5 0l-1.892 7.743a.342.342 0 00.018.224c.024.052.057.08.097.094.554.2 1.152.308 1.777.308s1.223-.109 1.777-.308a.168.168 0 00.098-.094.342.342 0 00.017-.224L18.75 8.131z"/>
</svg>
