<svg width="24" height="24" viewBox="0 0 24 24" xmlns="http://www.w3.org/2000/svg" fill="currentColor">
  <path fill-rule="evenodd" clip-rule="evenodd" d="M17.25 2.243a.75.75 0 01.75.75v1.499h.748a3 3 0 013 3v11.251a3 3 0 01-3 3h-13.5a3 3 0 01-3-3V7.493a3 3 0 013-3.001H6V2.994a.75.75 0 011.5 0v1.498h9V2.993a.75.75 0 01.75-.75zm-.047 3.749H6.814a.76.76 0 01-.13 0H5.249a1.5 1.5 0 00-1.5 1.5v1.152a2.986 2.986 0 011.5-.401h13.5c.546 0 1.059.146 1.5.401V7.492a1.5 1.5 0 00-1.5-1.5h-1.452a.76.76 0 01-.093 0zm3.045 5.25a1.5 1.5 0 00-1.5-1.5h-13.5a1.5 1.5 0 00-1.5 1.5v7.501a1.5 1.5 0 001.5 1.5h13.5a1.5 1.5 0 001.5-1.5v-7.5zm-8.998 1.5a.75.75 0 01.75-.75h.006a.75.75 0 01.75.75v.007a.75.75 0 01-.75.75H12a.75.75 0 01-.75-.75v-.006zm2.248 0a.75.75 0 01.75-.75h2.25a.75.75 0 010 1.5h-2.25a.75.75 0 01-.75-.75zm-6.75 2.251a.75.75 0 01.75-.75h4.5a.75.75 0 110 1.5h-4.5a.75.75 0 01-.75-.75zm9.002.002a.75.75 0 01.75-.75h.006a.75.75 0 01.75.75v.006a.75.75 0 01-.75.75H16.5a.75.75 0 01-.75-.75v-.005zm-2.251.002a.75.75 0 01.75-.75h.006a.75.75 0 01.75.75v.005a.75.75 0 01-.75.75h-.006a.75.75 0 01-.75-.75v-.005zm-6.75 2.247a.75.75 0 01.75-.75h.005a.75.75 0 01.75.75v.005a.75.75 0 01-.75.75H7.5a.75.75 0 01-.75-.75v-.005zm4.5 0a.75.75 0 01.75-.75h.006a.75.75 0 01.75.75v.005a.75.75 0 01-.75.75h-.006a.75.75 0 01-.75-.75v-.005zm-2.25 0a.75.75 0 01.75-.75h.006a.75.75 0 01.75.75v.006a.75.75 0 01-.75.75h-.006a.75.75 0 01-.75-.75v-.006zm4.5 0a.75.75 0 01.75-.75h.006a.75.75 0 01.75.75v.006a.75.75 0 01-.75.75h-.005a.75.75 0 01-.75-.75v-.006z"/>
</svg>
