<svg width="24" height="24" viewBox="0 0 24 24" xmlns="http://www.w3.org/2000/svg" fill="currentColor">
  <path fill-rule="evenodd" clip-rule="evenodd" d="M12 3.75a8.25 8.25 0 00-6.035 13.875A8.23 8.23 0 0112 15a8.23 8.23 0 016.035 2.625A8.25 8.25 0 0012 3.75zm4.917 14.875A6.73 6.73 0 0012 16.5a6.73 6.73 0 00-4.917 2.125A8.21 8.21 0 0012 20.25a8.21 8.21 0 004.917-1.625zM2.25 12c0-5.385 4.365-9.75 9.75-9.75s9.75 4.365 9.75 9.75c0 2.897-1.265 5.5-3.27 7.285A9.717 9.717 0 0112 21.75a9.716 9.716 0 01-6.48-2.465A9.728 9.728 0 012.25 12zM12 7.5a2.25 2.25 0 100 4.5 2.25 2.25 0 000-4.5zM8.25 9.75a3.75 3.75 0 117.5 0 3.75 3.75 0 01-7.5 0z"/>
</svg>
