<svg width="24" height="24" viewBox="0 0 24 24" xmlns="http://www.w3.org/2000/svg" fill="currentColor">
  <path fill-rule="evenodd" clip-rule="evenodd" d="M12 3.75c-2.356 0-4.67.172-6.933.505C3.877 4.43 3 5.485 3 6.741v6.018c0 1.256.877 2.311 2.067 2.486 1.069.157 2.15.279 3.24.363a.75.75 0 01.693.748v2.833l2.796-2.795c.414-.415.97-.647 1.547-.663a47.541 47.541 0 005.59-.486C20.123 15.07 21 14.015 21 12.76V6.741c0-1.257-.877-2.311-2.067-2.486A47.643 47.643 0 0012 3.75zm-7.152-.979A49.144 49.144 0 0112 2.25c2.43 0 4.817.178 7.152.52 1.978.292 3.348 2.024 3.348 3.97v6.02c0 1.946-1.37 3.678-3.348 3.97-1.89.277-3.815.446-5.768.5a.776.776 0 00-.528.224L8.78 21.53A.75.75 0 017.5 21v-3.955a48.842 48.842 0 01-2.652-.316c-1.978-.29-3.348-2.024-3.348-3.97V6.741c0-1.946 1.37-3.68 3.348-3.97z"/>
</svg>
