<svg width="24" height="24" viewBox="0 0 24 24" xmlns="http://www.w3.org/2000/svg" fill="currentColor">
  <path fill-rule="evenodd" clip-rule="evenodd" d="M11.999 3.75A5.25 5.25 0 006.749 9v.75a9.71 9.71 0 01-1.81 5.66c1.38.438 2.814.752 4.291.927a23.505 23.505 0 005.537 0 23.12 23.12 0 004.291-.928 9.709 9.709 0 01-1.81-5.659v-.707L17.25 9c0-2.9-2.35-5.25-5.25-5.25zM5.249 9a6.75 6.75 0 0113.5 0v.75c0 2.123.8 4.057 2.118 5.52a.75.75 0 01-.297 1.206c-1.544.57-3.16.99-4.831 1.243a3.75 3.75 0 11-7.48 0 24.585 24.585 0 01-4.831-1.244.75.75 0 01-.298-1.205A8.217 8.217 0 005.25 9.75V9zm4.502 8.9a2.25 2.25 0 104.496 0 25.055 25.055 0 01-4.496 0zM9.75 8.25a.75.75 0 01.75-.75h3a.75.75 0 01.624 1.166L11.9 12H13.5a.75.75 0 010 1.5h-3a.75.75 0 01-.624-1.166L12.098 9h-1.599a.75.75 0 01-.75-.75z"/>
</svg>
