<svg width="24" height="24" viewBox="0 0 24 24" xmlns="http://www.w3.org/2000/svg" fill="currentColor">
  <path fill-rule="evenodd" clip-rule="evenodd" d="M12.002 5.25a9.755 9.755 0 00-9.254 6.67.261.261 0 000 .165 9.754 9.754 0 0018.505-.005.262.262 0 000-.165 9.755 9.755 0 00-9.252-6.665zM1.323 11.447C2.812 6.976 7.03 3.75 12.002 3.75c4.97 0 9.185 3.223 10.675 7.69.12.362.12.752 0 1.113C21.19 17.024 16.972 20.25 12 20.25c-4.97 0-9.186-3.223-10.675-7.69a1.762 1.762 0 010-1.113zM12.001 9.75a2.25 2.25 0 100 4.5 2.25 2.25 0 000-4.5zM8.25 12a3.75 3.75 0 117.5 0 3.75 3.75 0 01-7.5 0z"/>
</svg>
