<svg width="24" height="24" viewBox="0 0 24 24" xmlns="http://www.w3.org/2000/svg" fill="currentColor">
  <path fill-rule="evenodd" clip-rule="evenodd" d="M12 2.25a.75.75 0 01.75.75v2.25a.75.75 0 01-1.5 0V3a.75.75 0 01.75-.75zM5.106 5.106a.75.75 0 011.06 0l1.591 1.59a.75.75 0 01-1.06 1.061l-1.591-1.59a.75.75 0 010-1.061zm13.788 0a.75.75 0 010 1.06l-1.59 1.591a.75.75 0 01-1.061-1.06l1.59-1.591a.75.75 0 011.061 0zM12 9a3 3 0 100 6 3 3 0 000-6zm-4.5 3a4.5 4.5 0 119 0 4.5 4.5 0 01-9 0zm-5.25 0a.75.75 0 01.75-.75h2.25a.75.75 0 010 1.5H3a.75.75 0 01-.75-.75zM18 12a.75.75 0 01.75-.75H21a.75.75 0 010 1.5h-2.25A.75.75 0 0118 12zM7.757 16.243a.75.75 0 010 1.06l-1.59 1.591a.75.75 0 11-1.061-1.06l1.59-1.591a.75.75 0 011.061 0zm8.486 0a.75.75 0 011.06 0l1.591 1.59a.75.75 0 01-1.06 1.061l-1.591-1.59a.75.75 0 010-1.061zM12 18a.75.75 0 01.75.75V21a.75.75 0 01-1.5 0v-2.25A.75.75 0 0112 18z"/>
</svg>
