<svg width="24" height="24" viewBox="0 0 24 24" xmlns="http://www.w3.org/2000/svg" fill="currentColor">
  <path fill-rule="evenodd" clip-rule="evenodd" d="M.97 3.97a.75.75 0 011.06 0l.946.945A2.988 2.988 0 014.5 4.5h9a3 3 0 013 3v1.19l3.44-3.44c.944-.945 2.56-.276 2.56 1.06v11.38c0 1.336-1.616 2.005-2.56 1.06l-3.44-3.44v1.19c0 .556-.152 1.077-.416 1.524l.946.946a.75.75 0 11-1.06 1.06l-15-15a.75.75 0 010-1.06zm13.98 12.919c.032-.124.05-.255.05-.389v-9A1.5 1.5 0 0013.5 6h-9c-.135 0-.265.018-.389.05L14.95 16.89zm1.55-3.7l4.5 4.5V6.311l-4.5 4.5v2.378zM2.25 8.25A.75.75 0 013 9v7.5A1.5 1.5 0 004.5 18H12a.75.75 0 010 1.5H4.5a3 3 0 01-3-3V9a.75.75 0 01.75-.75z"/>
</svg>
