<svg width="24" height="24" viewBox="0 0 24 24" xmlns="http://www.w3.org/2000/svg" fill="currentColor">
  <path fill-rule="evenodd" clip-rule="evenodd" d="M1.5 6.716A3 3 0 013.224 4l16.215 16.216H4.5a3 3 0 01-3-3v-10.5zM5.75 11a.75.75 0 000 1.5h3a.75.75 0 000-1.5h-3zm0 4a.75.75 0 000 1.5H11a.75.75 0 000-1.5H5.75zM9.25 4.5a.75.75 0 01.75-.75h9.5a3 3 0 013 3v9a.75.75 0 01-1.5 0v-9a1.5 1.5 0 00-1.5-1.5H10a.75.75 0 01-.75-.75z"/>
  <path fill-rule="evenodd" clip-rule="evenodd" d="M14.75 11.75a.75.75 0 01.75-.75H18a.75.75 0 010 1.5h-2.5a.75.75 0 01-.75-.75zM2.47 2.47a.75.75 0 011.06 0l18 18a.75.75 0 11-1.06 1.06l-18-18a.75.75 0 010-1.06z"/>
</svg>
