<svg width="24" height="24" viewBox="0 0 24 24" xmlns="http://www.w3.org/2000/svg" fill="currentColor">
  <path fill-rule="evenodd" clip-rule="evenodd" d="M11.999 2.25A6.75 6.75 0 005.249 9v.75a8.217 8.217 0 01-2.119 5.52.75.75 0 00.298 1.206c1.544.57 3.16.99 4.831 1.243a3.75 3.75 0 107.48 0 24.58 24.58 0 004.83-1.244.75.75 0 00.298-1.205 8.217 8.217 0 01-2.118-5.52V9a6.75 6.75 0 00-6.75-6.75zM9.749 18c0-.034 0-.067.002-.1a25.048 25.048 0 004.496 0l.002.1a2.25 2.25 0 11-4.5 0zm.75-10.5a.75.75 0 000 1.5h1.599l-2.223 3.334a.75.75 0 00.624 1.166h3a.75.75 0 000-1.5H11.9l2.223-3.334A.75.75 0 0013.5 7.5h-3z"/>
</svg>
