<svg width="24" height="24" viewBox="0 0 24 24" xmlns="http://www.w3.org/2000/svg" fill="currentColor">
  <path d="M3.531 2.47a.75.75 0 00-1.06 1.06l18 18a.75.75 0 001.06-1.06l-18-18zM22.677 12.553a11.25 11.25 0 01-2.631 4.31l-3.099-3.099a5.25 5.25 0 00-6.71-6.71L7.76 4.577a11.217 11.217 0 014.242-.827c4.97 0 9.185 3.223 10.675 7.69.12.362.12.752 0 1.113z"/>
  <path d="M15.751 12c0 .18-.013.357-.037.53L11.47 8.288A3.75 3.75 0 0115.75 12zM12.532 15.713l-4.244-4.244a3.75 3.75 0 004.243 4.243z"/>
  <path d="M6.751 12c0-.619.107-1.213.304-1.764l-3.1-3.1a11.25 11.25 0 00-2.63 4.31c-.12.362-.12.752 0 1.114C2.814 17.026 7.029 20.25 12 20.25c1.5 0 2.933-.294 4.242-.827l-2.477-2.477A5.25 5.25 0 016.751 12z"/>
</svg>
