<svg width="24" height="24" viewBox="0 0 24 24" xmlns="http://www.w3.org/2000/svg" fill="currentColor">
  <path fill-rule="evenodd" clip-rule="evenodd" d="M11.484 2.17a.75.75 0 011.032 0 11.209 11.209 0 007.877 3.08.75.75 0 01.722.515 12.74 12.74 0 01.635 3.985c0 5.942-4.064 10.933-9.563 12.348a.749.749 0 01-.374 0C6.314 20.683 2.25 15.692 2.25 9.75c0-1.39.223-2.73.635-3.985a.75.75 0 01.722-.516l.143.001c2.996 0 5.718-1.17 7.734-3.08zM4.156 6.744A11.262 11.262 0 003.75 9.75c0 5.174 3.493 9.533 8.25 10.846 4.757-1.313 8.25-5.672 8.25-10.846 0-1.042-.142-2.05-.406-3.006A12.699 12.699 0 0112 3.72a12.699 12.699 0 01-7.844 3.023zM12 8.25a.75.75 0 01.75.75v3.75a.75.75 0 01-1.5 0V9a.75.75 0 01.75-.75zm-.75 7.5A.75.75 0 0112 15h.008a.75.75 0 01.75.75v.008a.75.75 0 01-.75.75H12a.75.75 0 01-.75-.75v-.008z"/>
</svg>
