<svg width="24" height="24" viewBox="0 0 24 24" xmlns="http://www.w3.org/2000/svg" fill="currentColor">
  <path fill-rule="evenodd" clip-rule="evenodd" d="M12.749 3.747a.75.75 0 01.75.75V19.5a.75.75 0 01-1.5 0v-6.75H2.997v6.75a.75.75 0 11-1.5 0v-15a.75.75 0 111.5 0v6.75H12V4.497a.75.75 0 01.75-.75zM18.75 10.505c-.727 0-1.441.054-2.138.16a.75.75 0 01-.224-1.484 15.87 15.87 0 013.82-.11c.951.088 1.927.705 2.168 1.794a5.266 5.266 0 01-.579 3.765 5.266 5.266 0 01.578 3.765c-.24 1.088-1.216 1.706-2.167 1.794a15.939 15.939 0 01-3.82-.11.75.75 0 11.224-1.483 14.378 14.378 0 003.459.099c.467-.043.773-.322.84-.624a3.769 3.769 0 00-.413-2.691H18a.75.75 0 010-1.5h2.498a3.769 3.769 0 00.413-2.69c-.067-.303-.373-.582-.84-.625-.435-.04-.876-.06-1.321-.06z"/>
</svg>
