<svg width="24" height="24" viewBox="0 0 24 24" xmlns="http://www.w3.org/2000/svg" fill="currentColor">
  <path fill-rule="evenodd" clip-rule="evenodd" d="M20.67 3.33a1.125 1.125 0 00-1.59 0l-1.158 1.157 1.591 1.59L20.67 4.92c.44-.439.44-1.151 0-1.59zm-2.217 3.808l-1.591-1.59L4.71 17.697a3.75 3.75 0 00-.942 1.581l-.404 1.356 1.356-.404a3.749 3.749 0 001.58-.942L18.454 7.14zm-.434-4.87a2.625 2.625 0 113.712 3.713L7.363 20.35a5.25 5.25 0 01-2.214 1.319l-2.685.8a.75.75 0 01-.933-.933l.8-2.685a5.25 5.25 0 011.32-2.213l14.368-14.37z"/>
</svg>
