<svg width="24" height="25" viewBox="0 0 24 25" xmlns="http://www.w3.org/2000/svg" fill="currentColor">
  <path fill-rule="evenodd" clip-rule="evenodd" d="M9.657 4.742C8.572 5.127 7.891 5.8 7.68 6.592c-.215.8.045 1.733.81 2.616.746.862 1.929 1.612 3.387 2.003.07.019.14.036.21.053h8.164a.75.75 0 010 1.5H3.75a.75.75 0 010-1.5h4.78a7.103 7.103 0 01-1.176-1.074C6.373 9.055 5.85 7.625 6.23 6.204c.377-1.408 1.528-2.38 2.926-2.876 1.403-.497 3.127-.55 4.855-.086a8.937 8.937 0 012.93 1.373.75.75 0 01-.881 1.215 7.437 7.437 0 00-2.437-1.14c-1.472-.394-2.884-.331-3.966.052zm6.533 9.631a.75.75 0 011.03.252c.593.973.846 2.093.55 3.2-.377 1.407-1.528 2.38-2.927 2.875-1.402.497-3.127.55-4.855.087-1.712-.46-3.168-1.354-4.134-2.47a.75.75 0 011.134-.982c.747.862 1.93 1.612 3.388 2.003 1.473.394 2.885.331 3.966-.052 1.086-.384 1.766-1.057 1.979-1.85.168-.628.045-1.33-.382-2.032a.75.75 0 01.251-1.03z"/>
</svg>
