<svg width="356" height="356" viewBox="0 0 356 356" xmlns="http://www.w3.org/2000/svg" fill="currentColor">
  <path fill-rule="evenodd" clip-rule="evenodd" d="M22.25 100.125c0-24.577 19.923-44.5 44.5-44.5h222.5c24.577 0 44.5 19.923 44.5 44.5v155.75c0 24.577-19.923 44.5-44.5 44.5H66.75c-24.577 0-44.5-19.923-44.5-44.5v-155.75zm22.25 44.5v111.25c0 12.288 9.962 22.25 22.25 22.25h222.5c12.288 0 22.25-9.962 22.25-22.25v-111.25h-267zm267-33.375h-267v-11.125c0-12.288 9.962-22.25 22.25-22.25h222.5c12.288 0 22.25 9.962 22.25 22.25v11.125zM66.75 211.375c0-6.144 4.98-11.125 11.125-11.125h89c6.144 0 11.125 4.981 11.125 11.125s-4.981 11.125-11.125 11.125h-89c-6.144 0-11.125-4.981-11.125-11.125zm0 33.375c0-6.144 4.98-11.125 11.125-11.125h44.5c6.144 0 11.125 4.981 11.125 11.125s-4.981 11.125-11.125 11.125h-44.5c-6.144 0-11.125-4.981-11.125-11.125z"/>
</svg>
