<svg width="24" height="24" viewBox="0 0 24 24" xmlns="http://www.w3.org/2000/svg" fill="currentColor">
  <path fill-rule="evenodd" clip-rule="evenodd" d="M10.837 3.118A3 3 0 0113.5 1.5H15a3 3 0 012.663 1.618c.225.015.45.032.673.05C19.876 3.298 21 4.604 21 6.109v9.642a3 3 0 01-3 3h-1.5v1.875c0 1.035-.84 1.875-1.875 1.875h-9.75A1.875 1.875 0 013 20.625v-12c0-1.036.84-1.875 1.875-1.875H6.75c.252 0 .502.01.75.028v-.67c0-1.505 1.125-2.811 2.664-2.94.224-.018.448-.035.673-.05zM10.5 4.647c-.07.005-.141.01-.212.017C9.565 4.724 9 5.344 9 6.108v.903c4.3 1.016 7.5 4.879 7.5 9.489v.75H18a1.5 1.5 0 001.5-1.5V6.108c0-.764-.565-1.384-1.288-1.444L18 4.647v.603a.75.75 0 01-.75.75h-6a.75.75 0 01-.75-.75v-.603zm6-.147H12A1.501 1.501 0 0113.5 3H15a1.501 1.501 0 011.5 1.5zm-2.168 8.743a8.28 8.28 0 00-4.325-4.325c.315.582.493 1.249.493 1.957v1.5c0 .207.168.375.375.375h1.5c.708 0 1.375.178 1.957.493zM6.375 8.25h-1.5a.375.375 0 00-.375.375v12c0 .207.168.375.375.375h9.75a.375.375 0 00.375-.375v-3.75a2.625 2.625 0 00-2.625-2.625h-1.5A1.875 1.875 0 019 12.375v-1.5A2.625 2.625 0 006.375 8.25z"/>
</svg>
