<svg width="24" height="24" viewBox="0 0 24 24" xmlns="http://www.w3.org/2000/svg" fill="currentColor">
  <path fill-rule="evenodd" clip-rule="evenodd" d="M5.625 3a.375.375 0 00-.375.375v17.25c0 .207.168.375.375.375h12.75a.375.375 0 00.375-.375v-9A2.625 2.625 0 0016.125 9h-1.5a1.875 1.875 0 01-1.875-1.875v-1.5A2.625 2.625 0 0010.125 3h-4.5zm8.132.668c.315.582.493 1.249.493 1.957v1.5c0 .207.168.375.375.375h1.5c.708 0 1.375.178 1.957.493a8.28 8.28 0 00-4.325-4.325zm6.493 16.957c0 1.035-.84 1.875-1.875 1.875H5.625a1.875 1.875 0 01-1.875-1.875V3.375c0-1.036.84-1.875 1.875-1.875H10.5c5.385 0 9.75 4.365 9.75 9.75v9.375zm-4.814-9.235a.75.75 0 01.174 1.046l-3.75 5.25a.75.75 0 01-1.14.094l-2.25-2.25a.75.75 0 111.06-1.06l1.624 1.624 3.236-4.53a.75.75 0 011.046-.174z"/>
</svg>
