<svg width="24" height="24" viewBox="0 0 24 24" xmlns="http://www.w3.org/2000/svg" fill="currentColor">
  <path fill-rule="evenodd" clip-rule="evenodd" d="M5.625 3a.375.375 0 00-.375.375v17.25c0 .207.168.375.375.375h12.75a.375.375 0 00.375-.375v-9A2.625 2.625 0 0016.125 9h-1.5a1.875 1.875 0 01-1.875-1.875v-1.5A2.625 2.625 0 0010.125 3h-4.5zm0-1.5c-1.036 0-1.875.84-1.875 1.875v17.25c0 1.035.84 1.875 1.875 1.875h12.75c1.035 0 1.875-.84 1.875-1.875V11.25c0-5.385-4.365-9.75-9.75-9.75H5.625zm8.132 2.168c.315.582.493 1.249.493 1.957v1.5c0 .207.168.375.375.375h1.5c.708 0 1.375.178 1.957.493a8.28 8.28 0 00-4.325-4.325zM12.75 12c-.517 0-1.077.244-1.536.817-.078.098-.15.2-.215.308h1.751a.75.75 0 010 1.5h-2.232a3.965 3.965 0 000 .75h2.232a.75.75 0 010 1.5H11c.065.108.136.21.214.308.459.573 1.019.817 1.536.817.517 0 1.077-.244 1.536-.817a.75.75 0 111.171.937c-.713.892-1.689 1.38-2.707 1.38-1.018 0-1.994-.488-2.707-1.38a4.61 4.61 0 01-.705-1.245H8.25a.75.75 0 010-1.5h.763a5.46 5.46 0 010-.75H8.25a.75.75 0 010-1.5h1.088c.17-.449.406-.87.705-1.245.713-.892 1.689-1.38 2.707-1.38 1.018 0 1.994.488 2.707 1.38a.75.75 0 01-1.171.937c-.459-.573-1.019-.817-1.536-.817z"/>
</svg>
