<svg width="24" height="24" viewBox="0 0 24 24" xmlns="http://www.w3.org/2000/svg" fill="currentColor">
  <path fill-rule="evenodd" clip-rule="evenodd" d="M5.625 3a.375.375 0 00-.375.375v17.25c0 .207.168.375.375.375h12.75a.375.375 0 00.375-.375v-9A2.625 2.625 0 0016.125 9h-1.5a1.875 1.875 0 01-1.875-1.875v-1.5A2.625 2.625 0 0010.125 3h-4.5zm0-1.5c-1.036 0-1.875.84-1.875 1.875v17.25c0 1.035.84 1.875 1.875 1.875h12.75c1.035 0 1.875-.84 1.875-1.875V11.25c0-5.385-4.365-9.75-9.75-9.75H5.625zm8.132 2.168c.315.582.493 1.249.493 1.957v1.5c0 .207.168.375.375.375h1.5c.708 0 1.375.178 1.957.493a8.28 8.28 0 00-4.325-4.325zM12 10.5a.75.75 0 01.75.75v.028a9.725 9.725 0 011.687.28.75.75 0 11-.374 1.452 8.219 8.219 0 00-1.313-.226v1.68l.968.332c.67.23 1.282.85 1.282 1.704 0 .158-.007.314-.02.468-.083.931-.831 1.582-1.67 1.695a9.671 9.671 0 01-.56.058v.029a.75.75 0 01-1.5 0v-.029a9.726 9.726 0 01-1.687-.278.75.75 0 01.374-1.453c.425.11.864.186 1.313.226v-1.68l-.968-.332C9.612 14.974 9 14.354 9 13.5c0-.158.007-.314.02-.468.083-.931.831-1.582 1.67-1.694.184-.025.372-.045.56-.06v-.028a.75.75 0 01.75-.75zm-.75 2.284a8.23 8.23 0 00-.361.04c-.234.031-.361.194-.374.34-.01.11-.015.223-.015.336 0 .074.06.213.268.285l.482.165v-1.166zm1.5 3.266v1.166a8.23 8.23 0 00.361-.04c.234-.031.361-.194.374-.34.01-.11.015-.223.015-.336 0-.074-.06-.213-.268-.285l-.482-.165z"/>
</svg>
