<svg width="24" height="24" viewBox="0 0 24 24" xmlns="http://www.w3.org/2000/svg" fill="currentColor">
  <path fill-rule="evenodd" clip-rule="evenodd" d="M1.5 5.625c0-1.036.84-1.875 1.875-1.875h17.25c1.035 0 1.875.84 1.875 1.875v12.75c0 1.035-.84 1.875-1.875 1.875H3.375A1.875 1.875 0 011.5 18.375V5.625zm1.5 0v1.5c0 .207.168.375.375.375h1.5a.375.375 0 00.375-.375v-1.5a.375.375 0 00-.375-.375h-1.5A.375.375 0 003 5.625zm4.125-.375a.375.375 0 00-.375.375v5.25c0 .207.168.375.375.375h9.75a.375.375 0 00.375-.375v-5.25a.375.375 0 00-.375-.375h-9.75zm12 0a.375.375 0 00-.375.375v1.5c0 .207.168.375.375.375h1.5A.375.375 0 0021 7.125v-1.5a.375.375 0 00-.375-.375h-1.5zM21 9.375A.375.375 0 0020.625 9h-1.5a.375.375 0 00-.375.375v1.5c0 .207.168.375.375.375h1.5a.375.375 0 00.375-.375v-1.5zm0 3.75a.375.375 0 00-.375-.375h-1.5a.375.375 0 00-.375.375v1.5c0 .207.168.375.375.375h1.5a.375.375 0 00.375-.375v-1.5zm0 3.75a.375.375 0 00-.375-.375h-1.5a.375.375 0 00-.375.375v1.5c0 .207.168.375.375.375h1.5a.375.375 0 00.375-.375v-1.5zm-4.125 1.875a.375.375 0 00.375-.375v-5.25a.375.375 0 00-.375-.375h-9.75a.375.375 0 00-.375.375v5.25c0 .207.168.375.375.375h9.75zm-12 0a.375.375 0 00.375-.375v-1.5a.375.375 0 00-.375-.375h-1.5a.375.375 0 00-.375.375v1.5c0 .207.168.375.375.375h1.5zM3.375 15h1.5a.375.375 0 00.375-.375v-1.5a.375.375 0 00-.375-.375h-1.5a.375.375 0 00-.375.375v1.5c0 .207.168.375.375.375zm0-3.75h1.5a.375.375 0 00.375-.375v-1.5A.375.375 0 004.875 9h-1.5A.375.375 0 003 9.375v1.5c0 .207.168.375.375.375z"/>
</svg>
