<svg width="24" height="24" viewBox="0 0 24 24" xmlns="http://www.w3.org/2000/svg" fill="currentColor">
  <path fill-rule="evenodd" clip-rule="evenodd" d="M6 4.5A1.5 1.5 0 004.5 6v3h15A1.5 1.5 0 0018 7.5H14.12a2.25 2.25 0 01-1.59-.659L10.408 4.72a.75.75 0 00-.53-.22h-3.88zm15 4.706V9a3 3 0 00-3-3H14.12a.75.75 0 01-.53-.22L11.47 3.66A2.25 2.25 0 009.879 3h-3.88a3 3 0 00-3 3v3.206a3 3 0 00-1.875 3.218l.858 6A3 3 0 004.952 21h14.096a3 3 0 002.97-2.576l.857-6A3 3 0 0021 9.206zM4.094 10.5a1.5 1.5 0 00-1.485 1.712l.857 6A1.5 1.5 0 004.951 19.5H19.05a1.5 1.5 0 001.485-1.288l.857-6a1.5 1.5 0 00-1.485-1.712H4.094z"/>
</svg>
