<svg width="24" height="24" viewBox="0 0 24 24" xmlns="http://www.w3.org/2000/svg" fill="currentColor">
  <path fill-rule="evenodd" clip-rule="evenodd" d="M12.457 1.99a.75.75 0 01.506.296 7.46 7.46 0 002.717 2.248A9 9 0 115.496 6.529a.75.75 0 011.152.082c.472.66 1.049 1.24 1.705 1.715a9.742 9.742 0 013.539-6.176.75.75 0 01.565-.16zm-.183 1.82a8.224 8.224 0 00-2.523 5.803.75.75 0 01-1.091.655 9.03 9.03 0 01-2.641-2.044 7.5 7.5 0 109.015-2.336 8.968 8.968 0 01-2.76-2.078zm-.28 6.164a.75.75 0 01.599-.185 4.5 4.5 0 11-4.869 3.055.75.75 0 011.159-.37c.348.258.729.473 1.135.639a6.752 6.752 0 011.976-3.139zm.742 1.367a5.232 5.232 0 00-1.424 2.852.75.75 0 01-.92.614A6.706 6.706 0 019 14.298a3 3 0 103.736-2.957z"/>
</svg>
