<svg width="24" height="24" viewBox="0 0 24 24" xmlns="http://www.w3.org/2000/svg" fill="currentColor">
  <path fill-rule="evenodd" clip-rule="evenodd" d="M9.585 4.109a3 3 0 01-.263.561L7.911 7.023a.181.181 0 00.284.221 1.686 1.686 0 011.192-.494h.181a1.5 1.5 0 001.06-.44l.531.531-.53-.53.09-.091a.75.75 0 01.866-.14l.665.332a1.875 1.875 0 01.965 2.192l-.209.73a1.875 1.875 0 01-2.17 1.323l-1.178-.236a1.5 1.5 0 00-1.58.7l-.09.149a1.5 1.5 0 00-.193.525l-.007.042a1.5 1.5 0 00.922 1.64l.654.26a3 3 0 011.886 2.786v1.172c0 .168.137.305.305.305.478 0 .92-.25 1.167-.66l1.314-2.191a1.5 1.5 0 00.214-.772v-.411c0-.497.197-.974.55-1.326l.53.53-.53-.53.2-.2a.375.375 0 00-.058-.577l-.587-.391a1.64 1.64 0 011.36-2.94l1.273.363c.027.008.056 0 .076-.02a1.164 1.164 0 011.863.303l-.67.335.67-.335 1.08 2.16c.063.125.143.24.237.343A8.25 8.25 0 009.584 4.11zm10.5 9.537l-.857-.857a3 3 0 01-.562-.78l-.902-1.803a1.577 1.577 0 01-1.188.131l-1.273-.363a.14.14 0 00-.116.25l.587.39a1.875 1.875 0 01.286 2.887l-.53-.53.53.53-.2.2a.375.375 0 00-.11.265v.41a3 3 0 01-.428 1.544l-1.314 2.191a2.86 2.86 0 01-2.453 1.389 1.805 1.805 0 01-1.805-1.805v-1.172a1.5 1.5 0 00-.943-1.392l-.654-.262a3 3 0 01-1.845-3.279l.007-.042a3 3 0 01.387-1.05l.09-.15a3 3 0 013.16-1.397l1.178.235a.375.375 0 00.434-.265l.208-.73a.375.375 0 00-.193-.438l-.209-.104a3 3 0 01-1.802.601h-.18a.186.186 0 00-.132.055 1.681 1.681 0 01-2.632-2.053l.58-.965a8.25 8.25 0 1012.883 8.36zM8.713 2.82A9.734 9.734 0 0112 2.25c5.385 0 9.75 4.365 9.75 9.75 0 .512-.04 1.016-.116 1.508-.725 4.669-4.762 8.242-9.634 8.242-5.385 0-9.75-4.365-9.75-9.75a9.754 9.754 0 016.462-9.181z"/>
</svg>
