<svg width="24" height="24" viewBox="0 0 24 24" xmlns="http://www.w3.org/2000/svg" fill="currentColor">
  <path fill-rule="evenodd" clip-rule="evenodd" d="M6.502 4.129C5.089 4.836 4.5 5.673 4.5 6.375s.589 1.54 2.002 2.246C7.87 9.305 9.813 9.75 12 9.75c2.187 0 4.13-.445 5.498-1.129 1.413-.707 2.002-1.544 2.002-2.246s-.589-1.54-2.002-2.246C16.13 3.445 14.187 3 12 3c-2.187 0-4.13.445-5.498 1.129zM19.5 9.118a7.296 7.296 0 01-1.331.845c-1.617.808-3.8 1.287-6.169 1.287-2.37 0-4.551-.479-6.169-1.287A7.297 7.297 0 014.5 9.118v1.007c0 .702.589 1.54 2.002 2.246C7.87 13.055 9.813 13.5 12 13.5c2.187 0 4.13-.445 5.498-1.129 1.413-.707 2.002-1.544 2.002-2.246V9.118zm0 3.75a7.29 7.29 0 01-1.331.845C16.552 14.52 14.369 15 12 15c-2.37 0-4.551-.479-6.169-1.287a7.292 7.292 0 01-1.331-.845v1.007c0 .702.589 1.54 2.002 2.246C7.87 16.805 9.813 17.25 12 17.25c2.187 0 4.13-.445 5.498-1.129 1.413-.707 2.002-1.544 2.002-2.246v-1.007zm0 3.75a7.29 7.29 0 01-1.331.845c-1.617.808-3.8 1.287-6.169 1.287-2.37 0-4.551-.479-6.169-1.287a7.292 7.292 0 01-1.331-.845v1.007c0 .702.589 1.54 2.002 2.246C7.87 20.555 9.813 21 12 21c2.187 0 4.13-.445 5.498-1.129 1.413-.707 2.002-1.544 2.002-2.246v-1.007zM3 6.375c0-1.576 1.258-2.801 2.831-3.588C7.448 1.98 9.631 1.5 12 1.5c2.37 0 4.552.479 6.169 1.287C19.742 3.574 21 4.8 21 6.375v11.25c0 1.576-1.258 2.801-2.831 3.588-1.617.808-3.8 1.287-6.169 1.287-2.37 0-4.551-.479-6.169-1.287C4.258 20.426 3 19.2 3 17.625V6.375z"/>
</svg>
