<svg width="24" height="24" viewBox="0 0 24 24" xmlns="http://www.w3.org/2000/svg" fill="currentColor">
  <path fill-rule="evenodd" clip-rule="evenodd" d="M8.25 2.25A.75.75 0 019 3v.75h2.25V3a.75.75 0 011.5 0v.75H15V3a.75.75 0 011.5 0v.75h.75a3 3 0 013 3v.75H21A.75.75 0 0121 9h-.75v2.25H21a.75.75 0 010 1.5h-.75V15H21a.75.75 0 010 1.5h-.75v.75a3 3 0 01-3 3h-.75V21a.75.75 0 01-1.5 0v-.75h-2.25V21a.75.75 0 01-1.5 0v-.75H9V21a.75.75 0 01-1.5 0v-.75h-.75a3 3 0 01-3-3v-.75H3A.75.75 0 013 15h.75v-2.25H3a.75.75 0 010-1.5h.75V9H3a.75.75 0 010-1.5h.75v-.75a3 3 0 013-3h.75V3a.75.75 0 01.75-.75zm-1.5 3a1.5 1.5 0 00-1.5 1.5v10.5a1.5 1.5 0 001.5 1.5h10.5a1.5 1.5 0 001.5-1.5V6.75a1.5 1.5 0 00-1.5-1.5H6.75zm0 2.25a.75.75 0 01.75-.75h9a.75.75 0 01.75.75v9a.75.75 0 01-.75.75h-9a.75.75 0 01-.75-.75v-9zm1.5.75v7.5h7.5v-7.5h-7.5z"/>
</svg>
