<svg width="24" height="24" viewBox="0 0 24 24" xmlns="http://www.w3.org/2000/svg" fill="currentColor">
  <path fill-rule="evenodd" clip-rule="evenodd" d="M12 3.75a6.715 6.715 0 00-3.722 1.118.75.75 0 11-.829-1.25 8.25 8.25 0 0112.8 6.883c0 3.014-.574 5.897-1.62 8.543a.75.75 0 01-1.394-.551A21.691 21.691 0 0018.75 10.5 6.75 6.75 0 0012 3.75zM6.156 5.739a.75.75 0 01.211 1.04A6.715 6.715 0 005.25 10.5c0 1.613-.464 3.12-1.266 4.393a.75.75 0 01-1.269-.8A6.715 6.715 0 003.75 10.5c0-1.68.503-3.246 1.367-4.55a.75.75 0 011.04-.211zM12 7.5a3 3 0 00-3 3c0 3.1-1.176 5.927-3.106 8.056a.75.75 0 11-1.111-1.008A10.459 10.459 0 007.5 10.5a4.5 4.5 0 119 0c0 .547-.023 1.09-.067 1.626a.75.75 0 01-1.495-.123c.041-.495.062-.996.062-1.503a3 3 0 00-3-3zm0 2.25a.75.75 0 01.75.75c0 3.908-1.425 7.485-3.782 10.238a.75.75 0 01-1.139-.975 14.19 14.19 0 003.42-9.263.75.75 0 01.75-.75zm3.238 5.183a.75.75 0 01.516.927 19.417 19.417 0 01-2.585 5.544.75.75 0 01-1.243-.84 17.918 17.918 0 002.385-5.116.75.75 0 01.927-.515z"/>
</svg>
