<svg width="24" height="24" viewBox="0 0 24 24" xmlns="http://www.w3.org/2000/svg" fill="currentColor">
  <path fill-rule="evenodd" clip-rule="evenodd" d="M12 2.25a.75.75 0 01.75.75v6.44l1.72-1.72a.75.75 0 111.06 1.06l-3 3a.75.75 0 01-1.06 0l-3-3a.75.75 0 011.06-1.06l1.72 1.72V3a.75.75 0 01.75-.75zM6.912 4.5a1.5 1.5 0 00-1.434 1.059L3.265 12.75H6.11a3 3 0 012.684 1.658l.256.513a1.5 1.5 0 001.342.829h3.218a1.5 1.5 0 001.342-.83l.256-.512a3 3 0 012.684-1.658h2.844l-2.213-7.191A1.5 1.5 0 0017.088 4.5H15A.75.75 0 0115 3h2.088a3 3 0 012.867 2.118l2.412 7.838c.022.072.042.144.058.218a.746.746 0 01.066.44c.006.074.009.15.009.224V18a3 3 0 01-3 3h-15a3 3 0 01-3-3v-4.162c0-.075.003-.15.008-.225a.756.756 0 01.067-.44c.016-.073.036-.145.058-.217l2.411-7.838A3 3 0 016.912 3H9a.75.75 0 010 1.5H6.912zM3 14.25V18a1.5 1.5 0 001.5 1.5h15A1.5 1.5 0 0021 18v-3.75h-3.11a1.5 1.5 0 00-1.341.83l-.256.512a3 3 0 01-2.684 1.658h-3.218a3 3 0 01-2.684-1.658l-.256-.513a1.5 1.5 0 00-1.342-.829H3z"/>
</svg>
