<svg width="24" height="24" viewBox="0 0 24 24" xmlns="http://www.w3.org/2000/svg" fill="currentColor">
  <path fill-rule="evenodd" clip-rule="evenodd" d="M9.315 7.584C12.195 3.883 16.695 1.5 21.75 1.5a.75.75 0 01.75.75c0 5.056-2.383 9.555-6.084 12.436A6.75 6.75 0 019.75 22.5a.75.75 0 01-.75-.75v-4.131A15.838 15.838 0 016.382 15H2.25a.75.75 0 01-.75-.75 6.75 6.75 0 017.815-6.666zM8.331 9L8.25 9a5.251 5.251 0 00-5.197 4.5H6.45A15.662 15.662 0 018.331 9zm-.537 5.36a14.34 14.34 0 001.846 1.846 14.176 14.176 0 005.508-2.443A14.232 14.232 0 0020.98 3.021a14.231 14.231 0 00-10.743 5.831 14.177 14.177 0 00-2.443 5.509zm2.706 3.19v3.396A5.251 5.251 0 0015 15.67a15.66 15.66 0 01-4.5 1.881zM15 8.25a.75.75 0 100 1.5.75.75 0 000-1.5zM12.75 9a2.25 2.25 0 114.5 0 2.25 2.25 0 01-4.5 0zm-7.337 7.192a.75.75 0 01-.153 1.05 3.743 3.743 0 00-1.51 3.008c1.23 0 2.323-.592 3.008-1.51a.75.75 0 011.202.897 5.243 5.243 0 01-5.022 2.05.75.75 0 01-.626-.625 5.243 5.243 0 012.051-5.022.75.75 0 011.05.152z"/>
</svg>
