<svg width="24" height="24" viewBox="0 0 24 24" xmlns="http://www.w3.org/2000/svg" fill="currentColor">
  <path fill-rule="evenodd" clip-rule="evenodd" d="M21.546 9.204c-5.272-5.272-13.82-5.272-19.092 0a.75.75 0 01-1.06-1.06c5.857-5.859 15.355-5.859 21.213 0a.75.75 0 11-1.061 1.06zm-3.182 3.182a9 9 0 00-12.728 0 .75.75 0 11-1.06-1.06c4.1-4.101 10.748-4.101 14.849 0a.75.75 0 01-1.06 1.06zm-3.182 3.182a4.5 4.5 0 00-6.364 0 .75.75 0 11-1.06-1.06 6 6 0 018.485 0 .75.75 0 01-1.06 1.06zM10.94 17.69a1.5 1.5 0 012.122 0 .75.75 0 010 1.061l-.53.53a.75.75 0 01-1.061 0l-.53-.53a.75.75 0 010-1.06z"/>
</svg>
