<svg width="24" height="24" viewBox="0 0 24 24" xmlns="http://www.w3.org/2000/svg" fill="currentColor">
  <path fill-rule="evenodd" clip-rule="evenodd" d="M2.25 6a3 3 0 013-3h13.5a3 3 0 013 3v12a3 3 0 01-3 3H5.25a3 3 0 01-3-3V6zm3-1.5A1.5 1.5 0 003.75 6v1.5h16.5V6a1.5 1.5 0 00-1.5-1.5H5.25zm15 4.5H3.75v9a1.5 1.5 0 001.5 1.5h13.5a1.5 1.5 0 001.5-1.5V9zM4.5 6a.75.75 0 01.75-.75h.008a.75.75 0 01.75.75v.008a.75.75 0 01-.75.75H5.25a.75.75 0 01-.75-.75V6zm2.25 0a.75.75 0 01.75-.75h.008a.75.75 0 01.75.75v.008a.75.75 0 01-.75.75H7.5a.75.75 0 01-.75-.75V6zM9 6a.75.75 0 01.75-.75h.008a.75.75 0 01.75.75v.008a.75.75 0 01-.75.75H9.75a.75.75 0 01-.75-.75V6z"/>
</svg>
