<svg width="24" height="24" viewBox="0 0 24 24" xmlns="http://www.w3.org/2000/svg" fill="currentColor">
  <path fill-rule="evenodd" clip-rule="evenodd" d="M1.5 5.625c0-1.036.84-1.875 1.875-1.875h17.25c1.035 0 1.875.84 1.875 1.875v9.75c0 1.035-.84 1.875-1.875 1.875H3.375A1.875 1.875 0 011.5 15.375v-9.75zm18 10.125h-15a1.5 1.5 0 00-1.5-1.5v-7.5a1.5 1.5 0 001.5-1.5h15a1.5 1.5 0 001.5 1.5v7.5a1.5 1.5 0 00-1.5 1.5zM12 8.25a2.25 2.25 0 100 4.5 2.25 2.25 0 000-4.5zM8.25 10.5a3.75 3.75 0 117.5 0 3.75 3.75 0 01-7.5 0zm-3 0A.75.75 0 016 9.75h.008a.75.75 0 01.75.75v.008a.75.75 0 01-.75.75H6a.75.75 0 01-.75-.75V10.5zm12 0a.75.75 0 01.75-.75h.008a.75.75 0 01.75.75v.008a.75.75 0 01-.75.75H18a.75.75 0 01-.75-.75V10.5zM1.5 18.75a.75.75 0 01.75-.75c5.534 0 10.897.74 15.994 2.128a.397.397 0 00.506-.373V18.75a.75.75 0 011.5 0v1.005c0 1.262-1.21 2.144-2.4 1.82A59.32 59.32 0 002.25 19.5a.75.75 0 01-.75-.75z"/>
</svg>
