<svg width="24" height="24" viewBox="0 0 24 24" xmlns="http://www.w3.org/2000/svg" fill="currentColor">
  <path fill-rule="evenodd" clip-rule="evenodd" d="M12 3.75a8.25 8.25 0 100 16.5 8.25 8.25 0 000-16.5zM2.25 12c0-5.385 4.365-9.75 9.75-9.75s9.75 4.365 9.75 9.75-4.365 9.75-9.75 9.75S2.25 17.385 2.25 12zm6.08-5.378a1.5 1.5 0 012.17 1.341V9.75h5.25a.75.75 0 010 1.5H10.5v4.688c0 .066.015.119.034.154a.113.113 0 00.045.05 3.002 3.002 0 004.327-1.893h-.656a.75.75 0 010-1.499h.745c.779 0 1.613.672 1.415 1.65a4.501 4.501 0 01-6.543 3.063C9.259 17.136 9 16.501 9 15.938V11.25h-.75a.75.75 0 010-1.5H9V7.963l-.415.208a.75.75 0 01-.67-1.342l.414-.207zm6.667 7.628h-.001z"/>
</svg>
