<svg width="24" height="24" viewBox="0 0 24 24" xmlns="http://www.w3.org/2000/svg" fill="currentColor">
  <path fill-rule="evenodd" clip-rule="evenodd" d="M12 3.75a8.25 8.25 0 100 16.5 8.25 8.25 0 000-16.5zM2.25 12c0-5.385 4.365-9.75 9.75-9.75s9.75 4.365 9.75 9.75-4.365 9.75-9.75 9.75S2.25 17.385 2.25 12zM14 8.464A3.75 3.75 0 009.75 9.75h3a.75.75 0 010 1.5H9.075a3.77 3.77 0 000 1.5h3.675a.75.75 0 010 1.5h-3A3.75 3.75 0 0014 15.536a.75.75 0 01.498 1.415 5.25 5.25 0 01-6.494-2.701H7.5a.75.75 0 010-1.5h.054a5.281 5.281 0 010-1.5H7.5a.75.75 0 010-1.5h.505a5.25 5.25 0 016.494-2.701.75.75 0 11-.498 1.415z"/>
</svg>
