<svg width="24" height="24" viewBox="0 0 24 24" xmlns="http://www.w3.org/2000/svg" fill="currentColor">
  <path fill-rule="evenodd" clip-rule="evenodd" d="M12 3a3 3 0 00-3 3v.75h6V6a3 3 0 00-3-3zm4.5 3.75V6a4.5 4.5 0 10-9 0v.75H5.513c-.96 0-1.764.724-1.865 1.679l-1.263 12A1.875 1.875 0 004.25 22.5h15.5a1.875 1.875 0 001.865-2.071l-1.263-12a1.875 1.875 0 00-1.865-1.679H16.5zM15 8.25H9v1.411a1.125 1.125 0 11-1.5 0V8.25H5.513a.375.375 0 00-.373.336l-1.263 12A.375.375 0 004.25 21h15.5a.375.375 0 00.373-.414l-1.263-12a.375.375 0 00-.373-.336H16.5v1.411a1.125 1.125 0 11-1.5 0V8.25z"/>
</svg>
