<svg width="24" height="24" viewBox="0 0 24 24" xmlns="http://www.w3.org/2000/svg" fill="currentColor">
  <path fill-rule="evenodd" clip-rule="evenodd" d="M1.5 3a.75.75 0 01.75-.75h1.386c.85 0 1.593.571 1.811 1.392l.232.867a60.864 60.864 0 0116.149 1.877.75.75 0 01.525.965 60.358 60.358 0 01-2.96 7.228.75.75 0 01-.675.421H7.5a2.25 2.25 0 00-2.122 1.5H20.25a.75.75 0 010 1.5H4.5a.75.75 0 01-.75-.75 3.752 3.752 0 012.806-3.63L4.38 5.465l-.383-1.437a.375.375 0 00-.362-.278H2.25A.75.75 0 011.5 3zm4.577 3.004l2 7.496h10.17a58.886 58.886 0 002.42-5.857 59.406 59.406 0 00-14.59-1.64zM3.75 20.25a1.5 1.5 0 113 0 1.5 1.5 0 01-3 0zm12.75 0a1.5 1.5 0 113 0 1.5 1.5 0 01-3 0z"/>
</svg>
