<svg width="24" height="24" viewBox="0 0 24 24" xmlns="http://www.w3.org/2000/svg" fill="currentColor">
  <path fill-rule="evenodd" clip-rule="evenodd" d="M8.25 6c-1.667 0-3.314.086-4.936.255a.357.357 0 00-.314.36V13.5h10.5V6.615a.357.357 0 00-.314-.36A47.806 47.806 0 008.25 6zm5.25 9H3v2.625c0 .207.168.375.375.375h1.253a2.25 2.25 0 014.244 0H13.5v-3zm1.5 3h.878a2.251 2.251 0 014.244 0h.503c.22 0 .352-.17.342-.328a17.154 17.154 0 00-3.08-8.809 1.304 1.304 0 00-.987-.54H15V18zm0-11.177v-.208c0-.942-.703-1.753-1.66-1.852a49.301 49.301 0 00-10.18 0c-.957.099-1.66.91-1.66 1.852v11.01c0 1.035.84 1.875 1.875 1.875h1.253a2.25 2.25 0 004.244 0h7.006a2.251 2.251 0 004.244 0h.503c1.022 0 1.906-.838 1.839-1.92a18.653 18.653 0 00-3.348-9.578 2.806 2.806 0 00-2.193-1.179H15zM6.75 18a.75.75 0 100 1.5.75.75 0 000-1.5zM18 18a.75.75 0 100 1.5.75.75 0 000-1.5z"/>
</svg>
