<svg width="24" height="24" viewBox="0 0 24 24" xmlns="http://www.w3.org/2000/svg" fill="currentColor">
  <path fill-rule="evenodd" clip-rule="evenodd" d="M10.5.75a.75.75 0 01.75.75v10.94l1.72-1.72a.75.75 0 111.06 1.06l-3 3a.75.75 0 01-1.06 0l-3-3a.75.75 0 111.06-1.06l1.72 1.72V1.5a.75.75 0 01.75-.75zm-3.75 7.5a1.5 1.5 0 00-1.5 1.5v7.5a1.5 1.5 0 001.5 1.5h7.5a1.5 1.5 0 001.5-1.5v-7.5a1.5 1.5 0 00-1.5-1.5h-.75a.75.75 0 010-1.5h.75a3 3 0 013 3 3 3 0 013 3v7.5a3 3 0 01-3 3h-7.5a3 3 0 01-3-3 3 3 0 01-3-3v-7.5a3 3 0 013-3h.75a.75.75 0 010 1.5h-.75zm1.5 12a1.5 1.5 0 001.5 1.5h7.5a1.5 1.5 0 001.5-1.5v-7.5a1.5 1.5 0 00-1.5-1.5v6a3 3 0 01-3 3h-6z"/>
</svg>
