<svg preserveAspectRatio="none" width="100%" height="100%" overflow="visible" style="display: block;" viewBox="0 0 68.4446 18.2519" fill="none" xmlns="http://www.w3.org/2000/svg">
<g id="MC Priceless">
<g id="Group">
<path id="Vector" d="M36.6453 4.42859H31.4173V13.8235H36.6453V4.42859Z" fill="var(--fill-0, #FF5F00)"/>
<path id="Vector_2" d="M31.7493 9.12602C31.7493 7.22012 32.6417 5.52273 34.0314 4.42856C33.015 3.62842 31.7328 3.15105 30.3388 3.15105C27.0391 3.15105 24.3645 5.82612 24.3645 9.12602C24.3645 12.4259 27.0391 15.101 30.3388 15.101C31.7328 15.101 33.015 14.6236 34.0314 13.8235C32.6417 12.7293 31.7493 11.0319 31.7493 9.12602Z" fill="var(--fill-0, #EB001B)"/>
<path id="Vector_3" d="M43.6984 9.12605C43.6984 12.4257 41.0235 15.101 37.7239 15.101C36.3301 15.101 35.0477 14.6236 34.0312 13.8235C35.421 12.7296 36.3134 11.0319 36.3134 9.12605C36.3134 7.21994 35.421 5.52254 34.0312 4.42859C35.0477 3.62845 36.3301 3.15109 37.7239 3.15109C41.0235 3.15109 43.6984 5.82615 43.6984 9.12605Z" fill="var(--fill-0, #F79E1B)"/>
</g>
</g>
</svg>
