<svg width="81" height="50" viewBox="0 0 81 50" fill="none" xmlns="http://www.w3.org/2000/svg">
<path d="M31.0349 24.9077C31.0349 17.2516 34.6756 10.4334 40.3444 6.03894C36.1988 2.82519 30.9668 0.907715 25.2814 0.907715C11.8203 0.907715 0.908203 11.6528 0.908203 24.9077C0.908203 38.1626 11.8203 48.9077 25.2814 48.9077C30.9668 48.9077 36.1988 46.9902 40.3444 43.7765C34.6756 39.3821 31.0349 32.5638 31.0349 24.9077" stroke="#D1CDC7" stroke-width="1.81535"/>
<path d="M79.7799 24.9077C79.7799 38.1626 68.8678 48.9077 55.4067 48.9077C49.7206 48.9077 44.4893 46.9902 40.3438 43.7765C46.0125 39.3821 49.6533 32.5638 49.6533 24.9077C49.6533 17.2516 46.0125 10.4334 40.3438 6.03894C44.4893 2.82519 49.7206 0.907715 55.4067 0.907715C68.8678 0.907715 79.7799 11.6528 79.7799 24.9077" stroke="#D1CDC7" stroke-width="1.81535"/>
</svg>
