<svg width="40" height="24" viewBox="0 0 40 24" fill="none" xmlns="http://www.w3.org/2000/svg">
<path fill-rule="evenodd" clip-rule="evenodd" d="M39.0548 18.9738V19.9738H38.9685V19.2178L38.8363 19.8701H38.7468L38.6149 19.2192V19.9738H38.5283V18.9738H38.6509L38.7917 19.6614L38.9325 18.9738H39.0548ZM38.2794 19.1438V19.9738H38.1941V19.1438H38.0371V18.9745H38.4364V19.1438H38.2794Z" fill="#F89E1B"/>
<path d="M14.375 21.499H25.0609V2.65088H14.375V21.499Z" fill="#F16522"/>
<path d="M15.0633 12C15.0633 8.17194 16.8837 4.76283 19.7181 2.56561C17.6453 0.958739 15.0293 0 12.1866 0C5.45605 0 0 5.37255 0 12C0 18.6274 5.45605 24 12.1866 24C15.0293 24 17.6453 23.0413 19.7181 21.4344C16.8837 19.2372 15.0633 15.8281 15.0633 12" fill="#E52523"/>
<path d="M39.4368 12C39.4368 18.6274 33.9808 24 27.2502 24C24.4072 24 21.7915 23.0413 19.7188 21.4344C22.5531 19.2372 24.3735 15.8281 24.3735 12C24.3735 8.17194 22.5531 4.76283 19.7188 2.56561C21.7915 0.958739 24.4072 0 27.2502 0C33.9808 0 39.4368 5.37255 39.4368 12" fill="#F89E1B"/>
</svg>
