<svg width="24" height="24" viewBox="0 0 24 24" xmlns="http://www.w3.org/2000/svg" fill="currentColor">
  <path fill-rule="evenodd" clip-rule="evenodd" d="M1.5 6.75a3 3 0 013-3h15a3 3 0 013 3v10.5a3 3 0 01-3 3h-15a3 3 0 01-3-3V6.75zm3-1.5A1.5 1.5 0 003 6.75v10.5a1.5 1.5 0 001.5 1.5h15a1.5 1.5 0 001.5-1.5V6.75a1.5 1.5 0 00-1.5-1.5h-15z"/>
  <path d="M12 11.75a.75.75 0 01.75-.75H18a.75.75 0 010 1.5h-5.25a.75.75 0 01-.75-.75zM5 15.75a.75.75 0 01.75-.75H11a.75.75 0 010 1.5H5.75a.75.75 0 01-.75-.75zM5 11.75a.75.75 0 01.75-.75h3a.75.75 0 010 1.5h-3a.75.75 0 01-.75-.75zM14.25 15.75A.75.75 0 0115 15h3a.75.75 0 010 1.5h-3a.75.75 0 01-.75-.75z"/>
</svg>
