<svg width="24" height="24" viewBox="0 0 24 24" xmlns="http://www.w3.org/2000/svg" fill="currentColor">
  <path fill-rule="evenodd" clip-rule="evenodd" d="M21.75 12a.75.75 0 01-.75.75h-.783a8.223 8.223 0 01-.237 1.355l.735.268a.75.75 0 01-.514 1.41l-.735-.268a8.24 8.24 0 01-.689 1.191l.6.504a.75.75 0 11-.964 1.149l-.6-.504a8.29 8.29 0 01-1.055.885l.392.68a.75.75 0 01-1.299.75l-.391-.679a8.2 8.2 0 01-1.294.471l.136.771a.75.75 0 01-1.477.26l-.136-.772a8.374 8.374 0 01-1.376 0l-.137.773a.75.75 0 11-1.477-.261l.136-.77a8.187 8.187 0 01-1.293-.472l-.392.678a.75.75 0 01-1.299-.75l.392-.679a8.292 8.292 0 01-1.054-.885l-.6.505a.75.75 0 11-.965-1.15l.6-.503a8.247 8.247 0 01-.689-1.192l-.735.267a.75.75 0 11-.513-1.41l.735-.267a8.224 8.224 0 01-.238-1.356h-.783a.75.75 0 010-1.5h.783c.042-.464.122-.917.238-1.356l-.735-.267a.75.75 0 11.513-1.41l.735.268a8.24 8.24 0 01.69-1.192l-.6-.503a.75.75 0 01.963-1.15l.601.505c.326-.323.678-.62 1.054-.885L6.85 4.58a.75.75 0 011.3-.75l.39.677a8.19 8.19 0 011.294-.472l-.136-.769a.75.75 0 111.477-.26l.136.77a8.357 8.357 0 011.377 0l.136-.77a.75.75 0 111.477.26l-.136.77c.448.12.88.28 1.294.47l.391-.676a.75.75 0 011.3.75l-.392.678c.375.265.728.562 1.054.885l.6-.504a.75.75 0 11.964 1.15l-.6.503c.262.375.492.773.69 1.19l.734-.267a.75.75 0 11.513 1.41l-.734.267c.115.44.195.892.237 1.356h.784a.75.75 0 01.75.75zm-3.04-.75a6.704 6.704 0 00-1.557-3.612 6.784 6.784 0 00-1.82-1.51A6.704 6.704 0 0012 5.248a6.796 6.796 0 00-1.223.11 6.7 6.7 0 00-1.483.454l3.139 5.436h6.275zm-7.575.75L7.997 6.564a6.79 6.79 0 00-2.323 3.077.761.761 0 01-.035.097 6.739 6.739 0 00-.388 2.26 6.739 6.739 0 002.746 5.435L11.135 12zm-1.84 6.185l3.139-5.436h6.275a6.707 6.707 0 01-1.546 3.6 6.783 6.783 0 01-1.813 1.512 6.707 6.707 0 01-2.177.787 6.794 6.794 0 01-3.878-.462z"/>
</svg>
