<svg width="12" height="14" viewBox="0 0 12 14" xmlns="http://www.w3.org/2000/svg" fill="currentColor">
  <path d="M6.577 4.925a.577.577 0 10-1.154 0v2.562a.577.577 0 101.154 0V4.925zM6 8.959a.577.577 0 00-.577.577v.005c0 .318.258.577.577.577h.005a.577.577 0 00.577-.577v-.005a.577.577 0 00-.577-.577H6z"/>
  <path fill-rule="evenodd" clip-rule="evenodd" d="M6.317.953a.462.462 0 00-.634 0A6.898 6.898 0 01.835 2.848a.462.462 0 00-.444.317 7.85 7.85 0 005.494 10.051c.075.02.155.02.23 0a7.85 7.85 0 005.494-10.05.462.462 0 00-.444-.318h-.088A6.898 6.898 0 016.317.953zM.923 5.618c0-.642.087-1.262.25-1.85A7.815 7.815 0 006 1.908a7.815 7.815 0 004.827 1.86A6.926 6.926 0 016 12.292 6.926 6.926 0 01.923 5.618z"/>
</svg>
