<svg width="24" height="24" viewBox="0 0 24 24" xmlns="http://www.w3.org/2000/svg" fill="currentColor">
  <path fill-rule="evenodd" clip-rule="evenodd" d="M3 6a3 3 0 013-3h12a3 3 0 013 3v12a3 3 0 01-3 3H6a3 3 0 01-3-3V6zm3-1.5A1.5 1.5 0 004.5 6v12A1.5 1.5 0 006 19.5h12a1.5 1.5 0 001.5-1.5V6A1.5 1.5 0 0018 4.5H6zm10.5 2.25a.75.75 0 01.75.75v9a.75.75 0 01-1.5 0v-9a.75.75 0 01.75-.75zM13.5 9a.75.75 0 01.75.75v6.75a.75.75 0 01-1.5 0V9.75A.75.75 0 0113.5 9zm-3 2.25a.75.75 0 01.75.75v4.5a.75.75 0 01-1.5 0V12a.75.75 0 01.75-.75zm-3 2.25a.75.75 0 01.75.75v2.25a.75.75 0 01-1.5 0v-2.25a.75.75 0 01.75-.75z"/>
</svg>
