<svg width="24" height="24" viewBox="0 0 24 24" xmlns="http://www.w3.org/2000/svg" fill="currentColor">
  <path fill-rule="evenodd" clip-rule="evenodd" d="M1.5 3a.75.75 0 01.75-.75h19.5a.75.75 0 010 1.5H21v10.5a3 3 0 01-3 3h-1.21l1.172 3.513a.75.75 0 01-1.424.474l-.329-.987H7.791l-.33.987a.75.75 0 01-1.423-.474L7.21 17.25H6a3 3 0 01-3-3V3.75h-.75A.75.75 0 011.5 3zm3 .75v10.5a1.5 1.5 0 001.5 1.5h12a1.5 1.5 0 001.5-1.5V3.75h-15zm4.29 13.5l-.5 1.5h7.42l-.5-1.5H8.79zM15 6a.75.75 0 01.75.75v6a.75.75 0 01-1.5 0v-6A.75.75 0 0115 6zm-3 2.25a.75.75 0 01.75.75v3.75a.75.75 0 01-1.5 0V9a.75.75 0 01.75-.75zM9 10.5a.75.75 0 01.75.75v1.5a.75.75 0 01-1.5 0v-1.5A.75.75 0 019 10.5z"/>
</svg>
