<svg width="24" height="24" viewBox="0 0 24 24" xmlns="http://www.w3.org/2000/svg" fill="currentColor">
  <path fill-rule="evenodd" clip-rule="evenodd" d="M3 6.375A2.625 2.625 0 015.625 3.75h12.75a2.625 2.625 0 010 5.25H5.625A2.625 2.625 0 013 6.375zM5.625 5.25a1.125 1.125 0 000 2.25h12.75a1.125 1.125 0 000-2.25H5.625zM3 12a.75.75 0 01.75-.75h16.5a.75.75 0 010 1.5H3.75A.75.75 0 013 12zm0 3.75a.75.75 0 01.75-.75h16.5a.75.75 0 010 1.5H3.75a.75.75 0 01-.75-.75zm0 3.75a.75.75 0 01.75-.75h16.5a.75.75 0 010 1.5H3.75A.75.75 0 013 19.5z"/>
</svg>
