<svg width="24" height="24" viewBox="0 0 24 24" xmlns="http://www.w3.org/2000/svg" fill="currentColor">
  <path fill-rule="evenodd" clip-rule="evenodd" d="M3 6a3 3 0 013-3h2.25a3 3 0 013 3v2.25a3 3 0 01-3 3H6a3 3 0 01-3-3V6zm3-1.5A1.5 1.5 0 004.5 6v2.25A1.5 1.5 0 006 9.75h2.25a1.5 1.5 0 001.5-1.5V6a1.5 1.5 0 00-1.5-1.5H6zM12.75 6a3 3 0 013-3H18a3 3 0 013 3v2.25a3 3 0 01-3 3h-2.25a3 3 0 01-3-3V6zm3-1.5a1.5 1.5 0 00-1.5 1.5v2.25a1.5 1.5 0 001.5 1.5H18a1.5 1.5 0 001.5-1.5V6A1.5 1.5 0 0018 4.5h-2.25zM3 15.75a3 3 0 013-3h2.25a3 3 0 013 3V18a3 3 0 01-3 3H6a3 3 0 01-3-3v-2.25zm3-1.5a1.5 1.5 0 00-1.5 1.5V18A1.5 1.5 0 006 19.5h2.25a1.5 1.5 0 001.5-1.5v-2.25a1.5 1.5 0 00-1.5-1.5H6zm6.75 1.5a3 3 0 013-3H18a3 3 0 013 3V18a3 3 0 01-3 3h-2.25a3 3 0 01-3-3v-2.25zm3-1.5a1.5 1.5 0 00-1.5 1.5V18a1.5 1.5 0 001.5 1.5H18a1.5 1.5 0 001.5-1.5v-2.25a1.5 1.5 0 00-1.5-1.5h-2.25z"/>
</svg>
