<svg width="24" height="24" viewBox="0 0 24 24" xmlns="http://www.w3.org/2000/svg" fill="currentColor">
  <path fill-rule="evenodd" clip-rule="evenodd" d="M2.25 4.125c0-1.036.84-1.875 1.875-1.875h5.25c1.036 0 1.875.84 1.875 1.875v2.261l1.599-1.599a1.875 1.875 0 012.651 0L19.213 8.5c.732.732.732 1.919 0 2.651l-1.599 1.599h2.261c1.035 0 1.875.84 1.875 1.875v5.25c0 1.035-.84 1.875-1.875 1.875H6.75a4.485 4.485 0 01-3.167-1.303A4.486 4.486 0 012.25 17.25V4.125zm2.388 15.256l-.01-.01a2.99 2.99 0 01-.878-2.121V4.125c0-.207.168-.375.375-.375h5.25c.207 0 .375.168.375.375V17.25a3.001 3.001 0 01-5.112 2.131zm5.476.869h9.761a.375.375 0 00.375-.375v-5.25a.375.375 0 00-.375-.375h-3.761l-6 6zm1.136-3.257l6.902-6.902a.375.375 0 000-.53L14.44 5.847a.375.375 0 00-.53 0l-2.66 2.66v8.485zM6 17.25a.75.75 0 01.75-.75h.008a.75.75 0 01.75.75v.008a.75.75 0 01-.75.75H6.75a.75.75 0 01-.75-.75v-.008z"/>
</svg>
