<svg width="24" height="24" viewBox="0 0 24 24" xmlns="http://www.w3.org/2000/svg" fill="currentColor">
  <path fill-rule="evenodd" clip-rule="evenodd" d="M12 3c-.548 0-1.093.009-1.637.026C9.61 3.05 9 3.684 9 4.478v.113a49.492 49.492 0 016 0v-.113c0-.794-.609-1.428-1.363-1.452A51.191 51.191 0 0012 3zm4.5 1.705v-.227c0-1.564-1.213-2.9-2.815-2.951a52.673 52.673 0 00-3.37 0C8.713 1.578 7.5 2.914 7.5 4.478v.227a48.811 48.811 0 00-3.878.512.75.75 0 10.256 1.478l.209-.035 1.005 13.07a3 3 0 002.992 2.77h7.832a3 3 0 002.992-2.77l1.005-13.07.209.035a.75.75 0 00.256-1.478 48.499 48.499 0 00-3.878-.512zm1.926 1.728A47.412 47.412 0 0012 6a47.92 47.92 0 00-6.426.433l1.014 13.182A1.5 1.5 0 008.084 21h7.832a1.5 1.5 0 001.496-1.385l1.014-13.182zM9.231 8.251a.75.75 0 01.778.72l.346 9a.75.75 0 11-1.499.058l-.346-9a.75.75 0 01.72-.778zm5.538 0a.75.75 0 01.72.778l-.345 9a.75.75 0 11-1.5-.058l.347-9a.75.75 0 01.778-.72z"/>
</svg>
