<svg width="24" height="24" viewBox="0 0 24 24" xmlns="http://www.w3.org/2000/svg" fill="currentColor">
  <path fill-rule="evenodd" clip-rule="evenodd" d="M12 6.75a5.25 5.25 0 017.412-4.786.75.75 0 01.22 1.214L16.68 6.132a2.26 2.26 0 001.19 1.189l2.953-2.954a.75.75 0 011.214.222 5.25 5.25 0 01-5.233 7.392c-1.018-.086-1.87.1-2.309.634L7.344 21.3A3.298 3.298 0 112.7 16.657l8.684-7.151c.533-.44.72-1.291.634-2.309A5.342 5.342 0 0112 6.75zM17.25 3a3.75 3.75 0 00-3.736 4.07c.095 1.135-.043 2.66-1.176 3.594l-8.683 7.15a1.798 1.798 0 102.53 2.531l7.151-8.683c.933-1.133 2.46-1.271 3.593-1.176a3.75 3.75 0 004.048-4.153l-2.37 2.371a.75.75 0 01-.699.2 3.754 3.754 0 01-2.813-2.812.75.75 0 01.2-.698l2.372-2.371A3.801 3.801 0 0017.25 3zM4.117 19.125a.75.75 0 01.75-.75h.008a.75.75 0 01.75.75v.008a.75.75 0 01-.75.75h-.008a.75.75 0 01-.75-.75v-.008z"/>
</svg>
