<svg width="24" height="24" viewBox="0 0 24 24" xmlns="http://www.w3.org/2000/svg" fill="currentColor">
  <path fill-rule="evenodd" clip-rule="evenodd" d="M3.22 1.72a.75.75 0 01.916-.113l3.75 2.25a.75.75 0 01.364.643v1.098l3.483 3.483c.264-.47.35-1.132.286-1.884a5.25 5.25 0 017.393-5.233.75.75 0 01.22 1.214L16.68 6.132a2.26 2.26 0 001.19 1.189l2.953-2.954a.75.75 0 011.214.222 5.25 5.25 0 01-5.233 7.392h-.012l4.74 4.739a3.401 3.401 0 11-4.811 4.81l-5.247-5.246-4.13 5.015a3.298 3.298 0 11-4.642-4.642l6.2-5.105L5.597 8.25H4.5a.75.75 0 01-.643-.364l-2.25-3.75a.75.75 0 01.113-.916l1.5-1.5zm6.843 8.874l.582-.48L6.97 6.44a.75.75 0 01-.22-.53v-.984l-2.884-1.73-.672.671 1.73 2.884h.985a.75.75 0 01.53.22l3.624 3.624zm2.368 4.527l5.35 5.349a1.902 1.902 0 002.689-2.69l-5.528-5.527a1.486 1.486 0 00-.448.362l-2.063 2.505zM17.25 3a3.75 3.75 0 00-3.736 4.07c.095 1.135-.043 2.66-1.175 3.594l-8.684 7.15a1.798 1.798 0 102.53 2.531l7.151-8.683c.432-.524.996-.835 1.573-1.007.669-.2 1.383-.222 2.02-.168a3.75 3.75 0 004.048-4.153l-2.37 2.37a.75.75 0 01-.699.2 3.754 3.754 0 01-2.813-2.812.75.75 0 01.2-.698l2.372-2.371A3.799 3.799 0 0017.25 3zm-2.03 12.22a.75.75 0 011.06 0l2.625 2.625a.75.75 0 11-1.06 1.06L15.22 16.28a.75.75 0 010-1.06zM4.117 19.125a.75.75 0 01.75-.75h.008a.75.75 0 01.75.75v.008a.75.75 0 01-.75.75h-.008a.75.75 0 01-.75-.75v-.008z"/>
</svg>
