<svg width="24" height="24" viewBox="0 0 24 24" xmlns="http://www.w3.org/2000/svg" fill="currentColor">
  <path fill-rule="evenodd" clip-rule="evenodd" d="M5.379 3.75a.75.75 0 00-.53.22l-1.19 1.19a2.25 2.25 0 103.279 3.078.75.75 0 011.124 0A2.243 2.243 0 009.75 9c.672 0 1.274-.294 1.688-.762a.75.75 0 011.124 0A2.243 2.243 0 0014.25 9c.672 0 1.274-.294 1.688-.762a.75.75 0 011.124 0 2.251 2.251 0 003.279.103 2.25 2.25 0 000-3.182l-1.19-1.19a.75.75 0 00-.53-.219H5.38zm11.12 6c-.626.47-1.405.75-2.249.75-.844 0-1.623-.28-2.25-.75-.626.47-1.406.75-2.25.75-.844 0-1.623-.28-2.25-.75a3.749 3.749 0 01-3 .675v9.825h8.25V13.5a1.5 1.5 0 011.5-1.5h3a1.5 1.5 0 011.5 1.5v6.75h.75v-9.826a3.75 3.75 0 01-3-.674zm4.501 0a3.75 3.75 0 00.401-5.652L20.212 2.91a2.25 2.25 0 00-1.59-.659H5.378a2.25 2.25 0 00-1.591.66l-1.19 1.188A3.75 3.75 0 003 9.751V20.25h-.64a.75.75 0 000 1.5h19.28a.75.75 0 000-1.5H21V9.75zm-3.75 10.5V13.5h-3v6.75h3zm-12-6.75a1.5 1.5 0 011.5-1.5h3.75a1.5 1.5 0 011.5 1.5v3.75a1.5 1.5 0 01-1.5 1.5H6.75a1.5 1.5 0 01-1.5-1.5V13.5zm5.25 0H6.75v3.75h3.75V13.5z"/>
</svg>
