<svg width="24" height="24" viewBox="0 0 24 24" xmlns="http://www.w3.org/2000/svg" fill="currentColor">
  <path fill-rule="evenodd" clip-rule="evenodd" d="M11.584 2.376a.75.75 0 01.832 0l9 6a.75.75 0 11-.832 1.248L12 3.901 3.416 9.624a.75.75 0 01-.832-1.248l9-6zM11.25 6.75A.75.75 0 0112 6h.008a.75.75 0 01.75.75v.008a.75.75 0 01-.75.75H12a.75.75 0 01-.75-.75V6.75zm-6 4.228v9.272H7.5v-7.5a.75.75 0 011.5 0v7.5h2.25v-7.5a.75.75 0 011.5 0v7.5H15v-7.5a.75.75 0 011.5 0v7.5h2.25v-9.272A47.663 47.663 0 0012 10.5c-2.292 0-4.546.163-6.75.478zm15 9.272v-9.918a.75.75 0 00-.634-.74A49.11 49.11 0 0012 9c-2.59 0-5.134.202-7.616.592a.75.75 0 00-.634.74v9.918H3a.75.75 0 000 1.5h18a.75.75 0 000-1.5h-.75z"/>
</svg>
