<svg width="24" height="24" viewBox="0 0 24 24" xmlns="http://www.w3.org/2000/svg" fill="currentColor">
  <path fill-rule="evenodd" clip-rule="evenodd" d="M12.265 3.576a.375.375 0 00-.53 0L5.25 10.06v9.814c0 .207.168.375.375.375H9v-4.125c0-1.036.84-1.875 1.875-1.875h2.25c1.036 0 1.875.84 1.875 1.875v4.125h3.375a.375.375 0 00.375-.375v-9.814l-6.485-6.485zm7.985 7.985l.97.97a.75.75 0 101.06-1.061l-8.954-8.955a1.875 1.875 0 00-2.652 0L1.72 11.47a.75.75 0 001.06 1.06l.97-.97v8.315c0 1.035.84 1.875 1.875 1.875h12.75c1.035 0 1.875-.84 1.875-1.875v-8.314zM13.5 20.25h-3v-4.125c0-.207.168-.375.375-.375h2.25c.207 0 .375.168.375.375v4.125z"/>
</svg>
